<svg xmlns="http://www.w3.org/2000/svg" viewBox="0 0 48 48">
	<title>Github</title>
	<path fill="currentColor" d="M45.72 17.9C45.72 17.17 45.65 16.45 45.53 15.73C45.4 15.01 45.22 14.31 44.97 13.62C44.73 12.94 44.43 12.28 44.07 11.64C43.72 11.01 43.31 10.41 42.85 9.84C43.01 9.19 43.11 8.53 43.17 7.87C43.22 7.21 43.22 6.54 43.18 5.88C43.13 5.21 43.03 4.55 42.88 3.9C42.73 3.26 42.54 2.62 42.29 2C42.24 1.88 42.18 1.77 42.11 1.66C42.04 1.56 41.95 1.46 41.86 1.38C41.76 1.29 41.66 1.22 41.55 1.15C41.44 1.09 41.32 1.04 41.2 1C40.5 0.76 37.85 0.31 32.45 3.81C31.87 3.66 31.29 3.52 30.7 3.41C30.11 3.3 29.51 3.21 28.92 3.13C28.32 3.06 27.73 3.01 27.13 2.98C26.53 2.95 25.93 2.94 25.33 2.95C24.73 2.94 24.13 2.95 23.53 2.98C22.93 3.01 22.33 3.06 21.74 3.13C21.14 3.21 20.55 3.3 19.96 3.41C19.37 3.52 18.78 3.66 18.2 3.81C12.66 0.23 9.78 0.81 9.2 0.98C9.08 1.02 8.96 1.07 8.85 1.14C8.74 1.2 8.63 1.28 8.54 1.37C8.45 1.46 8.36 1.55 8.29 1.66C8.22 1.77 8.16 1.88 8.11 2C7.86 2.62 7.66 3.25 7.51 3.9C7.37 4.55 7.27 5.2 7.22 5.87C7.17 6.53 7.17 7.19 7.22 7.85C7.27 8.52 7.38 9.17 7.53 9.82C7.06 10.38 6.64 10.98 6.27 11.62C5.91 12.26 5.6 12.93 5.36 13.62C5.12 14.31 4.94 15.02 4.82 15.75C4.7 16.47 4.65 17.21 4.67 17.94C4.67 29 11 32.34 16.8 33.52C16.73 33.7 16.66 33.89 16.59 34.07C16.53 34.26 16.47 34.45 16.42 34.64C16.37 34.83 16.33 35.02 16.29 35.21C16.25 35.4 16.22 35.6 16.19 35.79C16.19 35.81 16.19 35.83 16.18 35.85C16.18 35.87 16.18 35.89 16.18 35.92C16.18 35.94 16.18 35.96 16.18 35.98C16.19 36 16.19 36.02 16.19 36.04L16.19 39.1C10.91 39.54 9.78 36.45 9.67 36.1C9.66 36.08 9.66 36.06 9.65 36.04C9.64 36.02 9.64 36 9.63 35.98C9.62 35.96 9.61 35.94 9.6 35.92C9.6 35.9 9.59 35.88 9.58 35.86C9.33 35.35 9.03 34.86 8.68 34.4C8.33 33.95 7.94 33.52 7.52 33.14C7.09 32.76 6.63 32.43 6.13 32.13C5.64 31.84 5.12 31.6 4.58 31.41C4.14 31.26 3.66 31.3 3.24 31.5C2.83 31.71 2.51 32.07 2.37 32.52C2.22 32.96 2.25 33.44 2.46 33.85C2.67 34.27 3.03 34.58 3.47 34.73C3.77 34.84 4.06 34.97 4.33 35.13C4.61 35.29 4.87 35.48 5.11 35.69C5.35 35.89 5.58 36.12 5.78 36.37C5.98 36.62 6.16 36.88 6.31 37.16C7.01 39.43 9.87 43.02 16.17 42.62L16.17 45.5C16.17 45.96 16.35 46.41 16.68 46.74C17.01 47.07 17.46 47.25 17.92 47.25C18.38 47.25 18.83 47.07 19.16 46.74C19.49 46.41 19.67 45.96 19.67 45.5L19.67 36.17C19.7 35.92 19.76 35.67 19.83 35.42C19.9 35.18 19.99 34.94 20.09 34.71C20.2 34.48 20.33 34.25 20.47 34.04C20.61 33.83 20.77 33.63 20.94 33.44C21.18 33.21 21.36 32.92 21.44 32.6C21.52 32.27 21.51 31.94 21.4 31.62C21.3 31.3 21.1 31.02 20.84 30.82C20.58 30.61 20.27 30.48 19.94 30.44C13.84 29.73 8.2 27.72 8.2 17.87C8.18 17.28 8.22 16.68 8.32 16.1C8.42 15.51 8.59 14.94 8.81 14.39C9.03 13.84 9.3 13.31 9.63 12.82C9.96 12.33 10.34 11.87 10.76 11.45C10.87 11.33 10.97 11.19 11.05 11.04C11.12 10.9 11.18 10.74 11.22 10.58C11.25 10.41 11.26 10.25 11.25 10.08C11.24 9.91 11.21 9.75 11.16 9.59C11.01 9.17 10.9 8.73 10.82 8.29C10.74 7.85 10.7 7.4 10.69 6.95C10.68 6.5 10.71 6.05 10.77 5.61C10.83 5.16 10.92 4.72 11.05 4.29C11.58 4.41 12.11 4.56 12.63 4.74C13.15 4.92 13.66 5.12 14.16 5.35C14.65 5.59 15.14 5.85 15.6 6.13C16.07 6.42 16.53 6.73 16.96 7.06C17.07 7.13 17.19 7.2 17.32 7.24C17.44 7.29 17.57 7.32 17.71 7.34C17.84 7.36 17.97 7.36 18.11 7.35C18.24 7.34 18.37 7.31 18.5 7.27C19.05 7.1 19.62 6.95 20.18 6.83C20.75 6.71 21.32 6.61 21.89 6.53C22.47 6.45 23.04 6.4 23.62 6.36C24.2 6.33 24.78 6.32 25.36 6.34C25.94 6.32 26.52 6.33 27.1 6.36C27.67 6.4 28.25 6.45 28.82 6.53C29.4 6.61 29.97 6.71 30.53 6.83C31.1 6.95 31.66 7.1 32.21 7.27C32.34 7.31 32.47 7.34 32.6 7.35C32.74 7.36 32.87 7.36 33 7.34C33.14 7.32 33.27 7.29 33.39 7.24C33.52 7.2 33.64 7.13 33.75 7.06C34.17 6.74 34.6 6.44 35.05 6.16C35.5 5.88 35.97 5.63 36.44 5.4C36.92 5.17 37.4 4.96 37.9 4.78C38.39 4.6 38.9 4.44 39.41 4.31C39.54 4.75 39.63 5.19 39.69 5.64C39.75 6.09 39.77 6.54 39.76 7C39.75 7.45 39.7 7.9 39.62 8.35C39.54 8.79 39.43 9.23 39.28 9.66C39.23 9.8 39.2 9.95 39.19 10.1C39.18 10.26 39.19 10.41 39.22 10.56C39.25 10.7 39.3 10.85 39.37 10.98C39.44 11.12 39.52 11.25 39.62 11.36C40.03 11.8 40.4 12.27 40.72 12.78C41.04 13.28 41.32 13.81 41.54 14.37C41.77 14.93 41.94 15.5 42.06 16.09C42.18 16.67 42.24 17.27 42.25 17.87C42.25 27.7 36.32 29.74 30.51 30.44C30.16 30.48 29.83 30.62 29.57 30.85C29.3 31.08 29.11 31.38 29.02 31.72C28.93 32.06 28.94 32.41 29.06 32.74C29.18 33.07 29.39 33.36 29.67 33.57C30.29 34.04 31.01 35.36 31.01 37.57L31.01 45.49C31.01 45.95 31.19 46.4 31.52 46.73C31.85 47.06 32.3 47.24 32.76 47.24C33.22 47.24 33.67 47.06 34 46.73C34.33 46.4 34.51 45.95 34.51 45.49L34.51 37.57C34.51 37.22 34.5 36.88 34.47 36.53C34.44 36.18 34.4 35.84 34.33 35.5C34.27 35.16 34.19 34.82 34.1 34.49C34 34.15 33.89 33.82 33.76 33.5C38.46 32.5 45.72 29.41 45.72 17.9Z" />
</svg>
