<svg xmlns="http://www.w3.org/2000/svg" viewBox="0 0 512 512">
	<title>Link</title>
  <path fill="currentColor" d="M212.26 390.24L151.93 450.57C126.92 475.58 86.41 475.58 61.42 450.58C36.42 425.58 36.42 385.07 61.42 360.08L182.1 239.4C207.09 214.41 247.6 214.41 272.59 239.4C280.92 247.73 294.43 247.73 302.76 239.4C311.09 231.07 311.09 217.56 302.76 209.23C261.11 167.57 193.58 167.57 151.93 209.23L31.25 329.91C-10.41 371.56 -10.41 439.09 31.25 480.74C72.9 522.42 140.42 522.42 182.1 480.74L242.43 420.41C250.76 412.08 250.76 398.57 242.43 390.24C234.1 381.91 220.59 381.91 212.26 390.24Z" />
  <path fill="currentColor" d="M480.75 31.24C439.1 -10.41 371.55 -10.41 329.9 31.24L257.51 103.62C249.18 111.95 249.18 125.46 257.51 133.79C265.84 142.12 279.35 142.12 287.68 133.79L360.07 61.41C385.06 36.42 425.59 36.42 450.58 61.41C475.57 86.4 475.57 126.91 450.58 151.9L317.85 284.64C292.85 309.63 252.35 309.63 227.35 284.64C219.02 276.31 205.52 276.31 197.18 284.64C188.85 292.97 188.85 306.48 197.18 314.81C238.84 356.46 306.36 356.46 348.01 314.81L480.75 182.07C522.4 140.42 522.4 72.89 480.75 31.24Z" />
</svg>