<svg xmlns="http://www.w3.org/2000/svg" viewBox="0 0 240 240">
  <title>Retired</title>
  <path fill="currentColor" d="M220 190L160 190L160 210L180 210C182.65 210 185.2 211.05 187.07 212.93C188.95 214.8 190 217.35 190 220C190 222.65 188.95 225.2 187.07 227.07C185.2 228.95 182.65 230 180 230L60 230C57.35 230 54.8 228.95 52.93 227.07C51.05 225.2 50 222.65 50 220C50 217.35 51.05 214.8 52.93 212.93C54.8 211.05 57.35 210 60 210L80 210L80 190L20 190C18.69 190 17.39 189.74 16.17 189.24C14.96 188.74 13.86 188 12.93 187.07C12 186.14 11.26 185.04 10.76 183.83C10.26 182.61 10 181.31 10 180L10 20C10 18.69 10.26 17.39 10.76 16.17C11.26 14.96 12 13.86 12.93 12.93C13.86 12 14.96 11.26 16.17 10.76C17.39 10.26 18.69 10 20 10L220 10C221.31 10 222.61 10.26 223.83 10.76C225.04 11.26 226.14 12 227.07 12.93C228 13.86 228.74 14.96 229.24 16.17C229.74 17.39 230 18.69 230 20L230 180C230 181.31 229.74 182.61 229.24 183.83C228.74 185.04 228 186.14 227.07 187.07C226.14 188 225.04 188.74 223.83 189.24C222.61 189.74 221.31 190 220 190ZM30 170L210 170L210 30L30 30L30 170ZM140 190L100 190L100 210L140 210L140 190Z" />
  <path fill="currentColor" d="M149.38 111.86C158.11 120.58 144.59 134.11 135.86 125.38C130.44 119.96 125.02 114.54 119.6 109.12C114.18 114.55 108.76 119.96 103.34 125.38C94.62 134.11 81.09 120.58 89.82 111.86C95.24 106.43 100.66 101.02 106.07 95.6C100.66 90.18 95.24 84.76 89.82 79.35C81.09 70.62 94.62 57.09 103.34 65.82C108.77 71.24 114.19 76.66 119.6 82.08C125.02 76.66 130.44 71.24 135.86 65.82C144.58 57.09 158.11 70.61 149.38 79.35C143.96 84.76 138.54 90.18 133.13 95.6C138.54 101.02 143.96 106.44 149.38 111.86Z" />
</svg>
