<svg xmlns="http://www.w3.org/2000/svg" viewBox="0 0 1160 78">
  <title>The Phork Timeline</title>
  <path fill="currentColor" d="M34.45 74.85Q34.45 77 32.3 77L26.92 77Q24.77 77 24.77 74.85L24.77 10.33L2.78 10.33Q0.63 10.33 0.63 8.18L0.63 3.61Q0.63 1.46 2.78 1.46L56.44 1.46Q58.59 1.46 58.59 3.61L58.59 8.18Q58.59 10.33 56.44 10.33L34.45 10.33L34.45 74.85ZM81.39 74.85Q81.39 77 79.24 77L73.86 77Q71.71 77 71.71 74.85L71.71 3.61Q71.71 1.46 73.86 1.46L79.24 1.46Q81.39 1.46 81.39 3.61L81.39 32.75L124.72 32.75L124.72 3.61Q124.72 1.46 126.87 1.46L132.25 1.46Q134.4 1.46 134.4 3.61L134.4 74.85Q134.4 77 132.25 77L126.87 77Q124.72 77 124.72 74.85L124.72 41.89L81.39 41.89L81.39 74.85ZM209.02 74.85Q209.02 77 206.87 77L157.52 77Q155.37 77 155.37 74.85L155.37 3.61Q155.37 1.46 157.52 1.46L206.12 1.46Q208.27 1.46 208.27 3.61L208.27 8.45Q208.27 10.6 206.12 10.6L165.04 10.6L165.04 32.81L198.05 32.81Q200.2 32.81 200.2 34.96L200.2 39.8Q200.2 41.95 198.05 41.95L165.04 41.95L165.04 67.86L206.87 67.86Q209.02 67.86 209.02 70.01L209.02 74.85ZM250.58 74.77L250.58 3.53Q250.58 2.41 251.22 1.83Q251.85 1.24 252.76 1.24L285.48 1.24Q288.99 1.24 292.07 2.25Q295.2 3.21 297.81 4.91Q300.46 6.61 302.54 9Q304.61 11.34 306.04 14.1Q307.53 16.86 308.27 19.94Q309.07 22.97 309.07 26.05Q309.07 30.68 307.37 35.08Q305.72 39.44 302.64 42.89Q299.61 46.35 295.31 48.47Q291.06 50.54 285.85 50.54L270.24 50.54L270.24 74.77Q270.24 77 267.9 77L252.76 77Q250.58 77 250.58 74.77ZM281.23 17.45L270.24 17.45L270.24 34.45L281.23 34.45Q283.09 34.45 284.53 33.76Q286.01 33.01 286.97 31.84Q287.98 30.62 288.51 29.08Q289.04 27.54 289.04 25.95Q289.04 24.41 288.51 22.92Q287.98 21.38 286.97 20.16Q285.96 18.93 284.47 18.19Q283.04 17.45 281.23 17.45ZM365.38 74.77L365.38 45.76L339.78 45.76L339.78 74.77Q339.78 77 337.33 77L322.35 77Q320.12 77 320.12 74.77L320.12 3.53Q320.12 2.63 320.65 1.93Q321.24 1.24 322.35 1.24L337.65 1.24Q338.29 1.24 339.03 1.67Q339.78 2.04 339.78 3.42L339.78 27.75L365.38 27.75L365.38 3.53Q365.38 2.63 365.91 1.93Q366.5 1.24 367.61 1.24L382.91 1.24Q383.55 1.24 384.3 1.67Q385.04 2.04 385.04 3.42L385.04 74.77Q385.04 77 382.6 77L367.61 77Q365.38 77 365.38 74.77ZM398.16 39.12Q398.16 33.76 399.54 28.76Q400.92 23.77 403.47 19.47Q406.02 15.11 409.58 11.55Q413.14 7.99 417.45 5.44Q421.8 2.89 426.8 1.51Q431.79 0.13 437.15 0.13Q442.52 0.13 447.51 1.51Q452.51 2.89 456.81 5.44Q461.17 7.99 464.73 11.55Q468.29 15.11 470.84 19.47Q473.39 23.77 474.77 28.76Q476.15 33.76 476.15 39.12Q476.15 44.49 474.77 49.48Q473.39 54.48 470.84 58.78Q468.29 63.08 464.73 66.64Q461.17 70.2 456.81 72.75Q452.51 75.3 447.51 76.68Q442.52 78.06 437.15 78.06Q429.08 78.06 421.96 75.03Q414.9 71.95 409.58 66.69Q404.27 61.38 401.19 54.32Q398.16 47.2 398.16 39.12ZM417.76 39.12Q417.76 43.32 419.2 47.04Q420.69 50.7 423.24 53.47Q425.84 56.17 429.4 57.77Q432.96 59.36 437.15 59.36Q441.35 59.36 444.91 57.77Q448.47 56.17 451.07 53.47Q453.68 50.7 455.11 47.04Q456.55 43.32 456.55 39.12Q456.55 34.93 455.11 31.26Q453.68 27.54 451.07 24.78Q448.47 22.02 444.91 20.48Q441.35 18.88 437.15 18.88Q432.96 18.88 429.4 20.48Q425.84 22.02 423.24 24.78Q420.69 27.54 419.2 31.26Q417.76 34.93 417.76 39.12ZM488.69 74.77L488.69 3.53Q488.69 2.68 489.22 1.99Q489.75 1.24 490.86 1.24L524.7 1.24Q530.12 1.24 534.53 3.42Q539 5.6 542.18 9.16Q545.37 12.72 547.12 17.34Q548.88 21.91 548.88 26.69Q548.88 29.72 547.97 32.75Q547.07 35.72 545.42 38.43Q543.78 41.14 541.49 43.48Q539.21 45.82 536.45 47.57L551.05 74.77Q551.48 75.51 551.16 76.26Q550.84 77 549.78 77L531.4 77Q530.34 77 529.8 76.58Q529.27 76.1 528.64 74.88L516.58 51.82L508.34 51.82L508.34 74.77Q508.34 77 506.11 77L490.86 77Q488.69 77 488.69 74.77ZM519.66 17.02L508.34 17.02L508.34 35.51L519.66 35.51Q521.68 35.51 523.32 34.71Q525.02 33.92 526.19 32.64Q527.41 31.37 528.05 29.72Q528.74 28.07 528.74 26.32Q528.74 24.67 528.05 23.02Q527.41 21.33 526.19 20Q524.97 18.67 523.27 17.87Q521.62 17.02 519.66 17.02ZM624.53 3.63L599.88 33.54L627.24 74.61Q627.98 75.67 627.77 76.36Q627.61 77 626.55 77L607.21 77Q606.09 77 605.4 76.42Q604.71 75.83 604.07 74.77L587.34 48.79L579.85 57.88L579.85 74.77Q579.85 77 577.62 77L562.37 77Q560.19 77 560.19 74.77L560.19 3.53Q560.19 2.47 560.78 1.88Q561.36 1.24 562.37 1.24L577.4 1.24Q577.67 1.24 578.1 1.4Q578.52 1.56 578.89 1.83Q579.32 2.09 579.58 2.57Q579.85 3 579.85 3.53L579.85 31.47L601.79 2.94Q602.75 1.72 603.54 1.51Q604.34 1.24 605.56 1.24L623.94 1.24Q625.16 1.24 625.16 2.09Q625.16 2.89 624.53 3.63ZM698.43 74.85Q698.43 77 696.28 77L690.9 77Q688.75 77 688.75 74.85L688.75 10.33L666.76 10.33Q664.61 10.33 664.61 8.18L664.61 3.61Q664.61 1.46 666.76 1.46L720.42 1.46Q722.57 1.46 722.57 3.61L722.57 8.18Q722.57 10.33 720.42 10.33L698.43 10.33L698.43 74.85ZM745.37 74.85Q745.37 77 743.22 77L737.84 77Q735.69 77 735.69 74.85L735.69 3.61Q735.69 1.46 737.84 1.46L743.22 1.46Q745.37 1.46 745.37 3.61L745.37 74.85ZM771.39 74.96Q771.12 77 769.13 77L763.59 77Q762.52 77 761.98 76.41Q761.5 75.82 761.6 74.74L769.83 3.51Q770.1 1.46 772.09 1.46L779.35 1.46Q781.17 1.46 781.76 3.18L803.97 63.18L826.12 3.18Q826.76 1.46 828.59 1.46L835.8 1.46Q836.82 1.46 837.41 2Q838 2.54 838.11 3.51L846.28 74.74Q846.39 75.82 845.85 76.41Q845.37 77 844.29 77L838.75 77Q836.76 77 836.5 74.96L830.47 16.89L808.75 75.28Q808.11 77 806.28 77L801.66 77Q799.83 77 799.24 75.28L777.57 16.89L771.39 74.96ZM916.17 74.85Q916.17 77 914.02 77L864.67 77Q862.52 77 862.52 74.85L862.52 3.61Q862.52 1.46 864.67 1.46L913.27 1.46Q915.42 1.46 915.42 3.61L915.42 8.45Q915.42 10.6 913.27 10.6L872.19 10.6L872.19 32.81L905.21 32.81Q907.36 32.81 907.36 34.96L907.36 39.8Q907.36 41.95 905.21 41.95L872.19 41.95L872.19 67.86L914.02 67.86Q916.17 67.86 916.17 70.01L916.17 74.85ZM978.11 74.85Q978.11 77 975.96 77L934.08 77Q931.93 77 931.93 74.85L931.93 3.61Q931.93 1.46 934.08 1.46L939.45 1.46Q941.6 1.46 941.6 3.61L941.6 67.86L975.96 67.86Q978.11 67.86 978.11 70.01L978.11 74.85ZM1000.37 74.85Q1000.37 77 998.22 77L992.84 77Q990.69 77 990.69 74.85L990.69 3.61Q990.69 1.46 992.84 1.46L998.22 1.46Q1000.37 1.46 1000.37 3.61L1000.37 74.85ZM1031.01 74.85Q1031.01 77 1028.86 77L1023.49 77Q1021.33 77 1021.33 74.85L1021.33 3.61Q1021.33 1.46 1023.49 1.46L1029.67 1.46Q1030.53 1.46 1031.12 1.78Q1031.71 2.05 1032.25 2.75L1075.26 61.14L1075.26 3.61Q1075.26 1.46 1077.41 1.46L1082.79 1.46Q1084.94 1.46 1084.94 3.61L1084.94 74.85Q1084.94 77 1082.79 77L1077.14 77Q1076.28 77 1075.69 76.73Q1075.1 76.41 1074.56 75.71L1031.01 16.68L1031.01 74.85ZM1159.56 74.85Q1159.56 77 1157.41 77L1108.06 77Q1105.9 77 1105.9 74.85L1105.9 3.61Q1105.9 1.46 1108.06 1.46L1156.66 1.46Q1158.81 1.46 1158.81 3.61L1158.81 8.45Q1158.81 10.6 1156.66 10.6L1115.58 10.6L1115.58 32.81L1148.59 32.81Q1150.74 32.81 1150.74 34.96L1150.74 39.8Q1150.74 41.95 1148.59 41.95L1115.58 41.95L1115.58 67.86L1157.41 67.86Q1159.56 67.86 1159.56 70.01L1159.56 74.85Z" />
</svg>
