<svg xmlns="http://www.w3.org/2000/svg" viewBox="0 0 512 512">
  <title>Twitter</title>
  <path fill="currentColor" d="M512 103.96C511.92 104.08 475.86 153.52 463.16 170.48C456.81 178.96 453.64 190 454.23 201.56C458.14 277.96 439.34 351.38 382.03 403C313.99 464.27 212.92 475.74 123.16 461.66C82.77 455.32 41.9 434.2 30.34 427.88L0 411.29L32.84 400.5C68.74 388.69 90.58 381.37 117.62 369.89C90.55 356.79 69.69 333.2 59.64 302.72L52 279.52L58.27 280.48C52.32 274.49 47.64 268.42 44 262.89C31.07 243.25 24.22 219.24 25.68 198.67L27.11 178.43L39.23 183.12C34.12 173.46 30.43 163.15 28.25 152.34C22.96 125.98 27.39 97.98 40.73 73.49L51.29 54.11L65.41 71.07C110.07 124.72 166.64 156.54 233.77 165.86C227.6 123.29 246.11 86.88 280.61 65.67C322.73 39.78 381.66 41.35 421.3 76.98C436.39 73.06 495.93 51.16 495.93 51.16L476.86 105.63C480.5 105.33 479.79 105.45 512 103.96ZM450.52 137.33L434 137.32L446.94 100.38C440.73 102.59 434.38 104.63 426.64 106.55C418.03 108.69 408.82 106.22 402.01 99.96C370.49 70.93 324.98 73.58 296.3 91.2C282.58 99.64 252.14 124.57 266.03 173.66C266.66 175.86 266.72 175.92 269.11 199.1C258.26 196.59 150.54 203.74 58.79 108.57C50.15 141.69 61.93 176.14 91.33 199.07L132.13 230.9L80.63 225.8C70.14 224.77 63.64 223.7 58.06 222.2C60.16 229.9 63.67 238.25 69.03 246.41C77.2 258.81 92.61 274.99 119.64 281.61L175.28 295.23L120.11 310.6C112.87 312.62 105.61 313.84 98.08 314.27C112.27 336.08 135.34 349.51 163.05 351.28L220.9 354.98L168.5 379.79C130.97 397.55 107.73 406.78 77.63 417.14C92.48 423.23 110.43 429.32 127.8 432.05C223.7 447.09 309.05 428.38 361.97 380.72C407.27 339.93 428.24 280.16 424.3 203.09C423.36 184.55 428.63 166.58 439.17 152.52C443.66 146.52 447.4 141.51 450.52 137.33Z" />
</svg>
